<svg xmlns="http://www.w3.org/2000/svg" width="165" height="53" viewBox="0 0 165 53" fill="none">
    <defs>
        <clipPath id="clip0_166_80">
            <rect fill="white" width="165" height="53" />
        </clipPath>












    </defs>
    <path fill="#ff0336"
        d="M 28.6 21.2 C 27.7 20.4 26.8 19.6 25.7 19 C 26.6 16.2 27.1 11.1 25.9 9.8 C 24.3 8 19.6 11.2 17.2 11.2 C 14.9 11.2 10.2 8 8.6 9.8 C 7.4 11.1 8 16.2 8.7 19.1 C 7.7 19.7 6.7 20.4 5.9 21.3 C 5 16.3 2.6 11.3 4.2 8.2 C 6.2 4.7 17 5 17.2 5 C 17.6 5 28.3 4.7 30.3 8.2 C 31.9 11.2 29.5 16.2 28.6 21.2 Z">
    </path>
    <path fill="#ff0336"
        d="M 19.5 48.4 C 19.3 48.4 19.1 48.4 19 48.5 L 26.5 27.1 H 18.9 V 14.8 C 21.5 15 23.9 15.8 26 17.1 C 27.1 17.7 28 18.4 28.9 19.3 C 31.6 21.9 33.5 25.5 34 29.7 C 35 38.8 28.5 47.2 19.5 48.4 Z" />
    <path fill="#ff0336"
        d="M 16.7 35.8 V 48.5 C 8.5 47.8 1.5 41.7 0.5 33.6 C -0.1 28 2.1 22.8 6.1 19.3 C 7 18.5 8 17.7 9.1 17.1 C 11.1 15.9 13.6 15.1 16.1 14.8 C 16.2 14.8 16.3 14.8 16.4 14.8 L 8.3 35.8 H 16.7 Z" />
    <path fill="white" d="M 17.3 48.5 L 17.1 34.2 H 10.2 L 17.1 15.9 L 16.4 29.7 H 23.2 L 17.3 48.5 Z" />
    <path fill="#ff0336" d="M 6.9 8.3 C 6.9 8.3 12.1 5.6 18.9 7.1 C 18.9 6.9 12.3 4.3 6.9 8.3 Z" />
    <path fill="#f2f2f2"
        d="M 9.1 20.2 C 9.1 20.2 0.9 25.6 2.9 36.5 C 2.9 36.5 2.5 31.9 4.4 28.7 C 4.4 28.7 2.2 38.5 9.1 44.1 C 9.1 44.2 -0.4 36.6 9.1 20.2 Z" />
    <path fill="#f2f2f2" d="M 28.8 25.6 C 28.8 25.6 32.8 36.5 23.2 45.2 C 23.2 45.2 35.5 38 28.8 25.6 Z" />
    <text transform="matrix(1,0,0,1,0,0)" font-family="Arial" font-size="33.7" font-style="normal" font-weight="normal"
        x="38" y="32.1" textLength="123.7" fill="rgb(255, 255, 255)">
        Fitness
    </text>
    <g> <text fill="rgb(255, 255, 255)" transform="matrix(1,0,0,1.3,-5.4,-8.6)" font-family="Arial" font-size="15.9"
            font-style="normal" font-weight="normal" x="48.3" y="45.4" textLength="100.3">
            Anytime
        </text></g>
</svg>